<svg width="170" height="92" viewBox="0 0 170 92" fill="none" xmlns="http://www.w3.org/2000/svg">
<rect x="0.5" y="0.5" width="169" height="91" rx="3.5" stroke="#2196F3"/>
<path d="M56.1462 37.1029H56.1433C53.7453 37.1029 51.8013 38.8305 51.8013 40.9616V40.9641C51.8013 43.0952 53.7453 44.8228 56.1433 44.8228H56.1462C58.5442 44.8228 60.4882 43.0952 60.4882 40.9641V40.9616C60.4882 38.8305 58.5442 37.1029 56.1462 37.1029Z" fill="#2196F3"/>
<path d="M88.195 35.8693C88.1882 32.9094 86.8623 30.0723 84.5074 27.979C82.1525 25.8857 78.9604 24.7067 75.6297 24.7V24.7C72.298 24.7054 69.1045 25.8838 66.7484 27.9772C64.3922 30.0706 63.0655 32.9085 63.0587 35.8693V52.1922C63.0587 52.1922 88.1922 49.7045 88.195 35.8719V35.8693Z" fill="#2196F3"/>
<path d="M43 57.5495C43.006 59.6091 43.9291 61.5829 45.5676 63.0395C47.2061 64.4961 49.4267 65.3171 51.7442 65.3231C54.0612 65.3171 56.2814 64.4964 57.9197 63.0404C59.5581 61.5843 60.4816 59.6112 60.4884 57.5521V46.1944C60.4884 46.1944 43 47.9267 43 57.5495ZM51.7442 59.5845C51.2913 59.5845 50.8486 59.4652 50.472 59.2415C50.0955 59.0179 49.802 58.7001 49.6287 58.3283C49.4554 57.9564 49.41 57.5473 49.4984 57.1525C49.5867 56.7578 49.8048 56.3952 50.125 56.1106C50.4453 55.826 50.8533 55.6322 51.2975 55.5537C51.7416 55.4751 52.202 55.5154 52.6205 55.6695C53.0389 55.8235 53.3965 56.0843 53.6481 56.419C53.8997 56.7536 54.034 57.1471 54.034 57.5495C54.0351 57.8174 53.9767 58.0828 53.8622 58.3306C53.7476 58.5784 53.5791 58.8036 53.3664 58.9934C53.1536 59.1832 52.9008 59.3338 52.6224 59.4365C52.3441 59.5392 52.0456 59.5921 51.7442 59.5921V59.5845Z" fill="#2196F3"/>
<path d="M69.4177 58.4638H67.7302V60.207H66.8513V55.9413H69.6286V56.6533H67.7302V57.7548H69.4177V58.4638ZM73.6423 58.1708C73.6423 58.5908 73.5681 58.9589 73.4196 59.2753C73.2712 59.5917 73.0583 59.8359 72.7809 60.0078C72.5056 60.1796 72.1891 60.2656 71.8317 60.2656C71.4782 60.2656 71.1628 60.1806 70.8854 60.0107C70.6081 59.8408 70.3932 59.5986 70.2409 59.2841C70.0886 58.9677 70.0114 58.6044 70.0095 58.1943V57.9833C70.0095 57.5634 70.0847 57.1943 70.235 56.8759C70.3874 56.5556 70.6013 56.3105 70.8766 56.1406C71.154 55.9687 71.4704 55.8828 71.8259 55.8828C72.1813 55.8828 72.4968 55.9687 72.7722 56.1406C73.0495 56.3105 73.2634 56.5556 73.4138 56.8759C73.5661 57.1943 73.6423 57.5624 73.6423 57.9804V58.1708ZM72.7516 57.9775C72.7516 57.5302 72.6716 57.1904 72.5114 56.9579C72.3513 56.7255 72.1227 56.6093 71.8259 56.6093C71.5309 56.6093 71.3034 56.7245 71.1432 56.955C70.9831 57.1835 70.902 57.5195 70.9001 57.9628V58.1708C70.9001 58.6064 70.9802 58.9443 71.1403 59.1845C71.3005 59.4247 71.5309 59.5449 71.8317 59.5449C72.1266 59.5449 72.3532 59.4296 72.5114 59.1992C72.6696 58.9667 72.7497 58.6288 72.7516 58.1855V57.9775ZM76.4929 59.0878C76.4929 58.9218 76.4343 58.7949 76.3171 58.707C76.1999 58.6171 75.989 58.5234 75.6843 58.4257C75.3796 58.3261 75.1384 58.2285 74.9606 58.1328C74.4763 57.871 74.2341 57.5185 74.2341 57.0751C74.2341 56.8447 74.2985 56.6396 74.4274 56.4599C74.5583 56.2783 74.7448 56.1367 74.987 56.0351C75.2311 55.9335 75.5046 55.8828 75.8073 55.8828C76.112 55.8828 76.3835 55.9384 76.6218 56.0497C76.86 56.1591 77.0446 56.3144 77.1755 56.5156C77.3083 56.7167 77.3747 56.9453 77.3747 57.2011H76.4958C76.4958 57.0058 76.4343 56.8544 76.3112 56.747C76.1882 56.6376 76.0153 56.5829 75.7927 56.5829C75.5778 56.5829 75.4108 56.6288 75.2917 56.7206C75.1725 56.8105 75.113 56.9296 75.113 57.0781C75.113 57.2167 75.1823 57.3329 75.321 57.4267C75.4616 57.5204 75.6677 57.6083 75.9391 57.6904C76.4391 57.8408 76.8034 58.0273 77.0319 58.2499C77.2604 58.4726 77.3747 58.7499 77.3747 59.082C77.3747 59.4511 77.235 59.7411 76.9557 59.9521C76.6765 60.1611 76.3005 60.2656 75.8278 60.2656C75.4997 60.2656 75.2009 60.206 74.9313 60.0869C74.6618 59.9658 74.4557 59.8007 74.3132 59.5917C74.1725 59.3828 74.1022 59.1406 74.1022 58.8652H74.9841C74.9841 59.3359 75.2653 59.5712 75.8278 59.5712C76.0368 59.5712 76.1999 59.5292 76.3171 59.4453C76.4343 59.3593 76.4929 59.2402 76.4929 59.0878ZM81.1833 56.6533H79.8766V60.207H78.9977V56.6533H77.7087V55.9413H81.1833V56.6533ZM84.2536 58.3583H82.5661V59.5009H84.5466V60.207H81.6872V55.9413H84.5407V56.6533H82.5661V57.6699H84.2536V58.3583ZM86.6413 58.6454H85.9411V60.207H85.0622V55.9413H86.6472C87.1511 55.9413 87.5397 56.0536 87.8132 56.2783C88.0866 56.5029 88.2233 56.8203 88.2233 57.2304C88.2233 57.5214 88.1599 57.7646 88.0329 57.9599C87.9079 58.1533 87.7175 58.3076 87.4616 58.4228L88.3845 60.166V60.207H87.4411L86.6413 58.6454ZM85.9411 57.9335H86.6501C86.8708 57.9335 87.0417 57.8779 87.1628 57.7665C87.2839 57.6533 87.3444 57.498 87.3444 57.3007C87.3444 57.0995 87.2868 56.9413 87.1716 56.8261C87.0583 56.7109 86.8835 56.6533 86.6472 56.6533H85.9411V57.9335ZM91.2673 58.704V60.207H90.3884V55.9413H92.0524C92.3727 55.9413 92.654 55.9999 92.8962 56.1171C93.1403 56.2343 93.3278 56.4013 93.4587 56.6181C93.5895 56.8329 93.655 57.0781 93.655 57.3535C93.655 57.7714 93.5114 58.1015 93.2243 58.3437C92.9391 58.5839 92.5436 58.704 92.0378 58.704H91.2673ZM91.2673 57.9921H92.0524C92.2849 57.9921 92.4616 57.9374 92.5827 57.8281C92.7057 57.7187 92.7673 57.5624 92.7673 57.3593C92.7673 57.1503 92.7057 56.9814 92.5827 56.8525C92.4597 56.7236 92.2897 56.6572 92.0729 56.6533H91.2673V57.9921ZM96.8278 58.3583H95.1403V59.5009H97.1208V60.207H94.2614V55.9413H97.1149V56.6533H95.1403V57.6699H96.8278V58.3583ZM100.906 56.6533H99.5993V60.207H98.7204V56.6533H97.4313V55.9413H100.906V56.6533ZM103.976 58.3583H102.289V59.5009H104.269V60.207H101.41V55.9413H104.263V56.6533H102.289V57.6699H103.976V58.3583ZM106.364 58.6454H105.664V60.207H104.785V55.9413H106.37C106.874 55.9413 107.262 56.0536 107.536 56.2783C107.809 56.5029 107.946 56.8203 107.946 57.2304C107.946 57.5214 107.883 57.7646 107.756 57.9599C107.631 58.1533 107.44 58.3076 107.184 58.4228L108.107 60.166V60.207H107.164L106.364 58.6454ZM105.664 57.9335H106.373C106.593 57.9335 106.764 57.8779 106.885 57.7665C107.007 57.6533 107.067 57.498 107.067 57.3007C107.067 57.0995 107.009 56.9413 106.894 56.8261C106.781 56.7109 106.606 56.6533 106.37 56.6533H105.664V57.9335ZM110.829 59.0878C110.829 58.9218 110.77 58.7949 110.653 58.707C110.536 58.6171 110.325 58.5234 110.02 58.4257C109.716 58.3261 109.474 58.2285 109.297 58.1328C108.812 57.871 108.57 57.5185 108.57 57.0751C108.57 56.8447 108.634 56.6396 108.763 56.4599C108.894 56.2783 109.081 56.1367 109.323 56.0351C109.567 55.9335 109.841 55.8828 110.143 55.8828C110.448 55.8828 110.719 55.9384 110.958 56.0497C111.196 56.1591 111.381 56.3144 111.511 56.5156C111.644 56.7167 111.711 56.9453 111.711 57.2011H110.832C110.832 57.0058 110.77 56.8544 110.647 56.747C110.524 56.6376 110.351 56.5829 110.129 56.5829C109.914 56.5829 109.747 56.6288 109.628 56.7206C109.508 56.8105 109.449 56.9296 109.449 57.0781C109.449 57.2167 109.518 57.3329 109.657 57.4267C109.798 57.5204 110.004 57.6083 110.275 57.6904C110.775 57.8408 111.139 58.0273 111.368 58.2499C111.596 58.4726 111.711 58.7499 111.711 59.082C111.711 59.4511 111.571 59.7411 111.292 59.9521C111.012 60.1611 110.636 60.2656 110.164 60.2656C109.836 60.2656 109.537 60.206 109.267 60.0869C108.998 59.9658 108.792 59.8007 108.649 59.5917C108.508 59.3828 108.438 59.1406 108.438 58.8652H109.32C109.32 59.3359 109.601 59.5712 110.164 59.5712C110.373 59.5712 110.536 59.5292 110.653 59.4453C110.77 59.3593 110.829 59.2402 110.829 59.0878Z" fill="#2196F3"/>
</svg>
