<svg width="170" height="92" viewBox="0 0 170 92" fill="none" xmlns="http://www.w3.org/2000/svg">
<rect x="0.5" y="0.5" width="169" height="91" rx="3.5" stroke="#AFB1B8"/>
<path d="M58.7569 60.7352C59.0006 61.0113 59.1304 61.3572 59.1236 61.7121C59.136 61.9437 59.0914 62.1748 58.993 62.3884C58.8947 62.6021 58.7451 62.7927 58.5554 62.9462C58.082 63.2735 57.4956 63.4336 56.9037 63.3969H54V57.2054H56.8442C57.4057 57.1712 57.9626 57.3166 58.42 57.6168C58.6036 57.7575 58.7491 57.9354 58.8448 58.1365C58.9406 58.3375 58.984 58.5562 58.9716 58.7752C58.9883 59.1167 58.8712 59.4525 58.6413 59.7219C58.4206 59.9679 58.1156 60.1385 57.7758 60.2059C58.161 60.2702 58.5087 60.4578 58.7569 60.7352ZM55.3511 59.8006H56.5667C56.843 59.8193 57.1174 59.7463 57.3397 59.5949C57.431 59.5191 57.502 59.4252 57.5473 59.3203C57.5925 59.2154 57.6108 59.1024 57.6007 58.99C57.6093 58.8779 57.5906 58.7656 57.5461 58.661C57.5015 58.5564 57.4322 58.4621 57.343 58.385C57.1141 58.2294 56.8312 58.1552 56.5469 58.1763H55.3511V59.8006ZM57.4587 62.1749C57.5562 62.0974 57.6329 62.0003 57.6828 61.8911C57.7326 61.782 57.7543 61.6638 57.7461 61.5458C57.7535 61.4264 57.7309 61.307 57.6799 61.1968C57.6289 61.0867 57.551 60.9888 57.4521 60.9106C57.2142 60.7492 56.9217 60.6699 56.6262 60.6868H55.3511V62.3897H56.6427C56.9334 62.405 57.2212 62.3293 57.4587 62.1749Z" fill="#AFB1B8"/>
<path d="M64.5709 63.3969L62.9886 60.9772H62.394V63.3969H61.033V57.2054H63.6096C64.2591 57.1639 64.9012 57.3523 65.4034 57.7317C65.7635 58.0677 65.9808 58.5105 66.0159 58.9803C66.051 59.45 65.9018 59.9157 65.595 60.2936C65.2771 60.6271 64.8428 60.8494 64.3661 60.9227L66.0508 63.3969H64.5709ZM62.394 60.1333H63.5072C64.2802 60.1333 64.6667 59.8207 64.6667 59.1956C64.6746 59.068 64.6534 58.9402 64.6045 58.8205C64.5556 58.7007 64.48 58.5916 64.3826 58.5C64.1383 58.314 63.8237 58.2237 63.5072 58.2489H62.3807L62.394 60.1333Z" fill="#AFB1B8"/>
<path d="M72.0102 62.1506H69.2981L68.8191 63.3967H67.392L69.8828 57.2748H71.4255L73.9063 63.3967H72.4793L72.0102 62.1506ZM71.6468 61.2129L70.6558 58.5996L69.6648 61.2129H71.6468Z" fill="#AFB1B8"/>
<path d="M81.3224 63.3968H79.9713L76.9421 59.1865V63.3968H75.5943V57.2053H76.9421L79.9713 61.4398V57.2053H81.3224V63.3968Z" fill="#AFB1B8"/>
<path d="M89.0326 61.9148C88.7532 62.3823 88.3276 62.7625 87.8103 63.0067C87.2222 63.2787 86.5695 63.4128 85.9109 63.3969H83.506V57.2054H85.9109C86.5684 57.1897 87.2202 57.3205 87.8103 57.5865C88.3275 57.8252 88.7536 58.2016 89.0326 58.6663C89.3107 59.1699 89.4556 59.7263 89.4556 60.2906C89.4556 60.8549 89.3107 61.4112 89.0326 61.9148ZM87.4866 61.7666C87.8722 61.3553 88.0842 60.8311 88.0842 60.2891C88.0842 59.747 87.8722 59.2228 87.4866 58.8115C87.0205 58.439 86.4127 58.2498 85.7952 58.2852H84.8571V62.2929H85.7952C86.4127 62.3283 87.0205 62.1392 87.4866 61.7666Z" fill="#AFB1B8"/>
<path d="M72.8558 22.7667C72.8558 22.7667 90.2945 28.7948 89.9245 37.5179V52.2722C89.9245 52.2722 72.4991 46.241 72.8624 37.5179L72.8558 22.7667Z" fill="#AFB1B8"/>
<path d="M105.46 48.8179C108.754 46.7427 112.563 45.4573 116.54 45.0795V40.4608C111.958 42.0778 108.071 45.0097 105.46 48.8179Z" fill="#AFB1B8"/>
<path d="M103.482 50.2094C106.177 45.2395 110.85 41.4045 116.54 39.493V26.1846C116.54 26.1846 91.705 34.7716 92.2303 47.1938V68.2C92.2303 68.2 93.3369 67.8159 95.0778 67.096C95.0778 66.4246 95.0778 65.747 95.1571 65.0665C95.6711 59.2995 98.6654 53.9554 103.482 50.2094Z" fill="#AFB1B8"/>
<path d="M101.12 58.013C101.25 56.5561 101.541 55.1151 101.989 53.7119C98.9896 56.947 97.1734 60.9613 96.7956 65.1905C96.7592 65.5897 96.7394 65.989 96.7295 66.4003C98.14 65.7803 99.7818 65.006 101.506 64.0956C101.066 62.0947 100.936 60.0471 101.12 58.013Z" fill="#AFB1B8"/>
<path d="M102.107 58.0886C101.942 59.9289 102.045 61.7812 102.415 63.5965C109.2 59.8792 116.824 54.1354 116.53 47.1938V46.5889C111.682 47.0855 107.147 49.0259 103.62 52.1119C102.795 54.0243 102.285 56.0386 102.107 58.0886Z" fill="#AFB1B8"/>
</svg>
